<svg preserveAspectRatio="none" overflow="visible" style="display: block;" width="5.71212" height="5.71212" viewBox="0 0 5.71212 5.71212" fill="none" xmlns="http://www.w3.org/2000/svg">
<g id="Water">
<path id="Vector" d="M2.90781 3.33308L2.66002 3.58108L2.90728 4.07602L3.15056 3.81901L2.90781 3.33308ZM3.06548 4.39269L3.29715 4.85644L3.54044 4.59941L3.30876 4.13568L3.06548 4.39269ZM4.96613 2.38473L4.72587 2.63857L5.18738 2.85948L5.42765 2.60565L4.96613 2.38473ZM3.96543 2.27455L4.41071 2.4877L4.65098 2.23388L4.21472 2.02505L3.96543 2.27455ZM3.60371 3.82407L3.90003 4.21952L4.13197 3.97449L3.83564 3.57905L3.60371 3.82407ZM3.63329 3.30902L3.33268 2.90785L3.09522 3.14552L3.40136 3.55405L3.63329 3.30902ZM3.53055 2.70981L3.91165 3.01496L4.14109 2.77255L3.76707 2.47308L3.53055 2.70981ZM4.17215 3.22354L4.55364 3.529L4.78309 3.28659L4.40159 2.98115L4.17215 3.22354ZM4.02864 1.32484L3.75603 1.59767L3.49923 1.34066C3.28178 1.12302 2.98686 1.00076 2.67934 1.00076C2.37182 1.00076 2.07689 1.12302 1.85944 1.34066C1.85589 1.3442 1.85245 1.34782 1.84896 1.35141C1.72765 1.26587 1.58519 1.21533 1.43714 1.2053C1.28908 1.19527 1.14112 1.22613 1.00939 1.29452C0.877668 1.36291 0.767245 1.46621 0.690174 1.59312C0.613102 1.72004 0.572345 1.86571 0.572348 2.01423V4.52025H0.904797V2.01423C0.904794 1.9271 0.928588 1.84162 0.973604 1.76704C1.01862 1.69245 1.08315 1.6316 1.16021 1.59107C1.23728 1.55053 1.32395 1.53184 1.41085 1.53702C1.49776 1.54221 1.5816 1.57107 1.6533 1.62048C1.53829 1.83979 1.49626 2.09012 1.53334 2.33501C1.57042 2.57989 1.68467 2.80652 1.85944 2.98187L2.11623 3.23888L1.86772 3.48761L2.0755 3.69557L4.23642 1.5328L4.02864 1.32484ZM2.32815 2.98044L2.09451 2.7466C1.94091 2.59105 1.85506 2.38099 1.8557 2.16229C1.85634 1.94359 1.94342 1.73404 2.09793 1.57939C2.25244 1.42474 2.46181 1.33758 2.68032 1.33693C2.89883 1.33628 3.10872 1.4222 3.26414 1.57593L3.49778 1.80978L2.32815 2.98044Z" fill="#1E196A"/>
</g>
</svg>
